<svg xmlns="http://www.w3.org/2000/svg" viewBox="0 0 64 64">
  <defs>
    <linearGradient id="bg" x1="0" y1="0" x2="1" y2="1">
      <stop offset="0%" stop-color="#2f2d8f" />
      <stop offset="100%" stop-color="#7a3fe1" />
    </linearGradient>
    <linearGradient id="cloud" x1="0" y1="0" x2="1" y2="1">
      <stop offset="0%" stop-color="#ffffff" />
      <stop offset="100%" stop-color="#dbe9ff" />
    </linearGradient>
  </defs>

  <rect x="4" y="4" width="56" height="56" rx="16" fill="url(#bg)" />

  <path
    d="M20 39c-4.4 0-8-3.2-8-7.2 0-3.5 2.8-6.4 6.6-7 1.2-5.1 6-8.8 11.6-8.8 6.4 0 11.7 4.8 12.3 10.9 5 0.2 9 3.7 9 8 0 4.4-4.2 8.1-9.5 8.1H20z"
    fill="url(#cloud)"
  />

  <path
    d="M29 39c3.9 0 6.9-3.1 6.9-6.8 0-0.9-0.2-1.7-0.5-2.5a5.1 5.1 0 0 1 3.2 4.8c0 3-2.5 5.5-5.6 5.5H29z"
    fill="#c5d7ff"
    opacity="0.75"
  />

  <path d="M45 18l1.7 3.8 3.8 1.7-3.8 1.7-1.7 3.8-1.7-3.8-3.8-1.7 3.8-1.7z" fill="#ff9fdd" />
  <circle cx="18" cy="20" r="2" fill="#8be9ff" />
  <circle cx="50" cy="43" r="1.8" fill="#ffd5f2" />
</svg>
